<svg xmlns="http://www.w3.org/2000/svg" width="110" height="110" version="1.0" id="spongebob"><circle cx="55" cy="55" r="55" fill="#E04F5F"></circle><path fill="#FACB1B" d="M34.48 23a4 4 0 0 0-3.975 4.452l4.091 36A4 4 0 0 0 38.57 67h32.858a4 4 0 0 0 3.974-3.548l4.091-36A4 4 0 0 0 75.52 23H34.48z"></path><path fill="#FBE158" d="M55 23H34.48a4 4 0 0 0-3.975 4.452l4.091 36A4 4 0 0 0 38.571 67H55V23zM85.719 62.734a3 3 0 0 0-3.986-1.453L69.451 67H71v5.898l13.266-6.177a3.002 3.002 0 0 0 1.453-3.987z"></path><path fill="#FBE158" d="M24.281 62.734a3 3 0 0 1 3.986-1.453L40.548 67H39v5.898L25.734 66.72a3 3 0 0 1-1.453-3.986z"></path><circle cx="49" cy="41" r="6" fill="#FFF"></circle><circle cx="50" cy="41" r="2" fill="#059BBF"></circle><circle cx="61" cy="41" r="6" fill="#FFF"></circle><circle cx="60" cy="41" r="2" fill="#059BBF"></circle><circle cx="64" cy="28" r="4" fill="#F3B607"></circle><circle cx="39" cy="31" r="4" fill="#FACB1B"></circle><circle cx="51" cy="29" r="2" fill="#FACB1B"></circle><circle cx="72" cy="33" r="2" fill="#F3B607"></circle><circle cx="72" cy="44" r="2" fill="#F3B607"></circle><circle cx="38" cy="46" r="2" fill="#FACB1B"></circle><circle cx="70" cy="60" r="2" fill="#F3B607"></circle><circle cx="41" cy="61" r="3" fill="#FACB1B"></circle><path fill="#FA5655" d="M69 50c-2.781-2.781-2.797 2-14 2s-11.219-4.781-14-2 5 10 14 10 16.781-7.219 14-10z"></path><path fill="#FFF" d="M50 51.612V55h4v-3.013a28.054 28.054 0 0 1-4-.375zM60 51.612c-1.13.194-2.446.333-4 .374V55h4v-3.388zM39 67h32v12H39z"></path><path fill="#AF7653" d="M39 75h32v4H39z"></path><path fill="#FA5655" d="M53 67v4l2 4 2-4v-4z"></path><path fill="#3E3E3F" d="M63 79v6a2 2 0 0 0 2 2h10c8.179 0 3-12-8-4v-4h-4zM47 79v6a2 2 0 0 1-2 2H35c-8.179 0-3-12 8-4v-4h4z"></path><path fill="#FFF" d="M43 79h4v3h-4zM63 79h4v3h-4z"></path></svg>